<svg xmlns="http://www.w3.org/2000/svg" width="91.007" height="19.985" viewBox="0 0 91.007 19.985"><defs><style>.a{fill:#fff;}</style></defs><g transform="translate(-81.156 -25.006)"><path class="a" d="M215.668,43.726h-1.324a.649.649,0,0,0-.649.649V49.9h-4.054a.653.653,0,0,0-.653.652v1.316a.652.652,0,0,0,.653.652h6.026a.648.648,0,0,0,.648-.648v-7.5A.648.648,0,0,0,215.668,43.726Z" transform="translate(-99.792 -14.647)"/><path class="a" d="M94.856,25.006H87.441a6.285,6.285,0,0,0-6.285,6.285v13.7h13.7a6.285,6.285,0,0,0,6.285-6.285V31.291A6.285,6.285,0,0,0,94.856,25.006Z"/><path class="a" d="M202.623,25.006h-7.415a6.285,6.285,0,0,0-6.285,6.285v13.7h13.7a6.285,6.285,0,0,0,6.285-6.285V31.291A6.285,6.285,0,0,0,202.623,25.006Zm4.327,13.7a4.332,4.332,0,0,1-4.327,4.327H190.881V31.291a4.332,4.332,0,0,1,4.327-4.327h7.415a4.332,4.332,0,0,1,4.327,4.327Z" transform="translate(-84.093)"/><path class="a" d="M310.39,25.006h-7.416a6.285,6.285,0,0,0-6.285,6.285v13.7h13.7a6.285,6.285,0,0,0,6.285-6.285V31.291A6.285,6.285,0,0,0,310.39,25.006Z" transform="translate(-168.186)"/><path class="a" d="M418.158,25.006h-7.415a6.285,6.285,0,0,0-6.285,6.285v13.7h13.7a6.285,6.285,0,0,0,6.285-6.285V31.291A6.285,6.285,0,0,0,418.158,25.006Z" transform="translate(-252.28)"/></g></svg>